<svg xmlns="http://www.w3.org/2000/svg" xmlns:xlink="http://www.w3.org/1999/xlink" width="200" height="200" viewBox="0 0 200 200"><defs><clipPath id="a"><path d="M0,100C0,25,25,0,100,0S200,25,200,100,175,200,100,200,0,175,0,100" fill="#e6008a"/></clipPath><clipPath id="c"><rect width="200" height="200"/></clipPath></defs><g id="b" clip-path="url(#c)"><path d="M0,100C0,25,25,0,100,0S200,25,200,100,175,200,100,200,0,175,0,100" fill="#1f113a"/><rect width="200" height="200" fill="none"/><g transform="translate(43.702 34.993)"><path d="M56.3,0l56.3,32.5V97.51l-56.3,32.5L0,97.51V32.5Z" fill="#673ab8"/><path d="M32.14,133.944c7.484,9.579,31.27,2.281,53.725-15.264s35.292-38.857,27.808-48.437S82.4,67.963,59.948,85.507,24.656,124.364,32.14,133.944Zm3.2-2.5c-2.482-3.176-1.4-9.413,3.331-17.265C43.648,105.914,52.1,96.787,62.446,88.7S83.691,74.629,92.917,71.8c8.762-2.689,15.076-2.232,17.558.945s1.4,9.414-3.331,17.265c-4.98,8.267-13.433,17.394-23.777,25.476S62.122,129.559,52.9,132.39c-8.762,2.689-15.076,2.233-17.558-.944Z" transform="translate(-16.805 -36.971)" fill="#fff"/><path d="M113.673,133.944c7.485-9.579-5.352-30.892-27.808-48.437S39.624,60.664,32.14,70.243s5.352,30.893,27.808,48.437,46.241,24.844,53.725,15.264Zm-3.2-2.5c-2.482,3.177-8.8,3.634-17.558.945-9.227-2.831-20.127-8.826-30.471-16.907s-18.8-17.209-23.777-25.476c-4.729-7.851-5.814-14.088-3.332-17.265s8.8-3.633,17.558-.945c9.227,2.832,20.127,8.826,30.472,16.908s18.8,17.209,23.777,25.476c4.729,7.851,5.814,14.088,3.331,17.265Z" transform="translate(-16.805 -36.971)" fill="#fff"/><path d="M116.57,145.7a8.622,8.622,0,1,0-8.622-8.622A8.622,8.622,0,0,0,116.57,145.7Z" transform="translate(-60.469 -71.96)" fill="#fff"/></g><g transform="translate(2 -2)"><path d="M1.832-47.371H42.66v10.043h-14.3V0H16.128V-37.328H1.8ZM73.216-32.748a5.773,5.773,0,0,0-.883-2.748,4.545,4.545,0,0,0-2.176-1.718,9.668,9.668,0,0,0-3.582-.573,9.541,9.541,0,0,0-3.288.491,4.355,4.355,0,0,0-2,1.358,3.148,3.148,0,0,0-.671,1.979,3.181,3.181,0,0,0,1.5,2.879,15.561,15.561,0,0,0,5.005,1.9l3.958.785q7.557,1.636,11.107,5.251a12.825,12.825,0,0,1,3.615,9.209A13.108,13.108,0,0,1,83.5-6.1a14.473,14.473,0,0,1-6.576,4.94A27.464,27.464,0,0,1,66.673.556a28.18,28.18,0,0,1-10.73-1.865,14.761,14.761,0,0,1-7-5.643,17.633,17.633,0,0,1-2.552-9.471H58.3a7.307,7.307,0,0,0,1.145,3.68,6.23,6.23,0,0,0,2.813,2.29,10.772,10.772,0,0,0,4.253.769,10.12,10.12,0,0,0,3.566-.556,5.141,5.141,0,0,0,2.241-1.5,3.381,3.381,0,0,0,.769-2.192,3.038,3.038,0,0,0-.72-2.028,6.076,6.076,0,0,0-2.323-1.521,24.34,24.34,0,0,0-4.22-1.227l-4.776-1.08q-6.51-1.374-9.962-4.629a11.335,11.335,0,0,1-3.451-8.653,13.072,13.072,0,0,1,2.421-7.8,15.831,15.831,0,0,1,6.723-5.267,24.321,24.321,0,0,1,9.831-1.881,23.655,23.655,0,0,1,9.8,1.881A14.819,14.819,0,0,1,82.867-40.8a14.267,14.267,0,0,1,2.29,8.048Z" transform="translate(85 164)" fill="#fff"/><path d="M66.607-48.025a24.321,24.321,0,0,0-9.831,1.881,15.831,15.831,0,0,0-6.723,5.267,13.072,13.072,0,0,0-2.421,7.8,11.335,11.335,0,0,0,3.451,8.653q3.451,3.255,9.962,4.629l4.776,1.08a24.339,24.339,0,0,1,4.22,1.227,6.076,6.076,0,0,1,2.323,1.521,3.038,3.038,0,0,1,.72,2.028,3.381,3.381,0,0,1-.769,2.192,5.141,5.141,0,0,1-2.241,1.5,10.12,10.12,0,0,1-3.566.556,10.772,10.772,0,0,1-4.253-.769,6.23,6.23,0,0,1-2.813-2.29,7.306,7.306,0,0,1-1.145-3.68H46.39a17.633,17.633,0,0,0,2.552,9.471,14.761,14.761,0,0,0,7,5.643A28.181,28.181,0,0,0,66.673.556,27.464,27.464,0,0,0,76.929-1.161,14.473,14.473,0,0,0,83.5-6.1a13.108,13.108,0,0,0,2.306-7.835A12.825,12.825,0,0,0,82.2-23.146q-3.55-3.615-11.107-5.251l-3.959-.785a15.561,15.561,0,0,1-5.005-1.9,3.181,3.181,0,0,1-1.5-2.879,3.148,3.148,0,0,1,.671-1.979,4.355,4.355,0,0,1,2-1.358,9.541,9.541,0,0,1,3.288-.491,9.668,9.668,0,0,1,3.582.573A4.545,4.545,0,0,1,72.333-35.5a5.773,5.773,0,0,1,.883,2.748H85.157a14.267,14.267,0,0,0-2.29-8.048,14.819,14.819,0,0,0-6.461-5.349,23.655,23.655,0,0,0-9.8-1.881m-64.775.654L1.8-37.328H16.128V0H28.364V-37.328h14.3V-47.371H1.832m64.775-5.654A28.7,28.7,0,0,1,78.461-50.7a19.8,19.8,0,0,1,8.578,7.152,19.243,19.243,0,0,1,3.118,10.8v5H84.579q.626.53,1.184,1.1a17.187,17.187,0,0,1,3.765,5.786A19.348,19.348,0,0,1,90.811-14v.058A18.055,18.055,0,0,1,87.571-3.191,19.446,19.446,0,0,1,78.8,3.477,32.511,32.511,0,0,1,66.673,5.556,33.243,33.243,0,0,1,54.045,3.318a19.733,19.733,0,0,1-9.3-7.546A22.6,22.6,0,0,1,41.39-16.337L41.3-21.423h5.71a15.466,15.466,0,0,1-3.162-4.937,17.742,17.742,0,0,1-1.206-5.968H33.364V5H11.128V-32.328H-3.217l.065-20.043H47.66v6.553a21.531,21.531,0,0,1,7.113-4.907A29.381,29.381,0,0,1,66.607-53.025Z" transform="translate(85 164)" fill="#1f113a"/></g></g></svg>