<svg xmlns="http://www.w3.org/2000/svg" xmlns:xlink="http://www.w3.org/1999/xlink" viewBox="0 0 200 200"><defs><path id="reuse-0" fill="none" d="M0 0h200v200H0z"/></defs><defs><clipPath id="b"><path fill="#673ab8" d="M0 0h200v200H0z"/></clipPath><clipPath id="c"><path fill="#1f113a" d="M0 100C0 25 25 0 100 0s100 25 100 100-25 100-100 100S0 175 0 100"/></clipPath><clipPath id="a"><path d="M0 0h200v200H0z"/></clipPath></defs><g clip-path="url(#a)"><use xlink:href="#reuse-0"/><g clip-path="url(#b)"><path fill="#400094" d="M0 100C0 25 25 0 100 0s100 25 100 100-25 100-100 100S0 175 0 100"/><use xlink:href="#reuse-0"/></g><g clip-path="url(#c)"><path fill="#230051" d="M43.72 132.53 171.57 252.2l89.38-71.82L156.42 67.53Z"/><g clip-path="url(#a)"><use xlink:href="#reuse-0"/><path fill="#6e00ff" d="m100 35 56.3 32.5v65L100 165l-56.3-32.5v-65Z"/><path fill="#fff" d="M59.04 131.97c7.48 9.58 31.27 2.28 53.72-15.27s35.3-38.85 27.81-48.43-31.27-2.28-53.72 15.26-35.3 38.86-27.81 48.44Zm3.2-2.5c-2.49-3.18-1.4-9.42 3.33-17.27 4.98-8.26 13.43-17.4 23.77-25.48s21.25-14.07 30.47-16.9c8.77-2.69 15.08-2.23 17.56.95s1.4 9.41-3.33 17.26c-4.98 8.27-13.43 17.4-23.78 25.48s-21.24 14.07-30.46 16.9c-8.77 2.7-15.08 2.23-17.56-.94Z"/><path fill="#fff" d="M140.57 131.97c7.49-9.58-5.35-30.9-27.8-48.44S66.51 58.69 59.03 68.26s5.35 30.9 27.8 48.44 46.25 24.85 53.73 15.27Zm-3.2-2.5c-2.48 3.17-8.8 3.63-17.56.94-9.22-2.83-20.12-8.82-30.47-16.9S70.54 96.3 65.56 88.02c-4.72-7.85-5.81-14.09-3.33-17.27s8.8-3.63 17.56-.94c9.23 2.83 20.13 8.82 30.47 16.9s18.8 17.21 23.78 25.48c4.73 7.85 5.81 14.09 3.33 17.26Z"/><path fill="#fff" d="M99.8 108.73a8.62 8.62 0 1 0-8.62-8.62 8.62 8.62 0 0 0 8.62 8.62ZM88.83 114.63h40.83v10.04h-14.3V162h-12.23v-37.33H88.8Zm71.39 14.62a5.77 5.77 0 0 0-.89-2.75 4.54 4.54 0 0 0-2.17-1.71 9.67 9.67 0 0 0-3.58-.58 9.54 9.54 0 0 0-3.3.5 4.36 4.36 0 0 0-2 1.35 3.15 3.15 0 0 0-.66 1.98 3.18 3.18 0 0 0 1.5 2.88 15.56 15.56 0 0 0 5 1.9l3.96.79q7.56 1.63 11.1 5.25a12.82 12.82 0 0 1 3.62 9.2 13.1 13.1 0 0 1-2.3 7.84 14.47 14.47 0 0 1-6.58 4.94 27.46 27.46 0 0 1-10.25 1.72 28.18 28.18 0 0 1-10.73-1.87 14.76 14.76 0 0 1-7-5.64 17.63 17.63 0 0 1-2.55-9.47h11.91a7.3 7.3 0 0 0 1.15 3.68 6.23 6.23 0 0 0 2.8 2.29 10.77 10.77 0 0 0 4.26.77 10.12 10.12 0 0 0 3.57-.56 5.14 5.14 0 0 0 2.24-1.5 3.38 3.38 0 0 0 .77-2.2 3.04 3.04 0 0 0-.72-2.02 6.08 6.08 0 0 0-2.33-1.52 24.34 24.34 0 0 0-4.22-1.23l-4.77-1.08q-6.51-1.37-9.96-4.63a11.34 11.34 0 0 1-3.45-8.65 13.07 13.07 0 0 1 2.42-7.8 15.83 15.83 0 0 1 6.72-5.27 24.32 24.32 0 0 1 9.83-1.88 23.66 23.66 0 0 1 9.8 1.88 14.82 14.82 0 0 1 6.46 5.34 14.27 14.27 0 0 1 2.29 8.05Z"/><path fill="#230051" d="M153.6 113.97a24.32 24.32 0 0 0-9.82 1.89 15.83 15.83 0 0 0-6.73 5.26 13.07 13.07 0 0 0-2.42 7.8 11.34 11.34 0 0 0 3.45 8.66q3.45 3.25 9.96 4.62l4.78 1.08a24.34 24.34 0 0 1 4.22 1.23 6.08 6.08 0 0 1 2.32 1.52 3.04 3.04 0 0 1 .72 2.03 3.38 3.38 0 0 1-.77 2.2 5.14 5.14 0 0 1-2.24 1.5 10.12 10.12 0 0 1-3.56.55 10.77 10.77 0 0 1-4.26-.77 6.23 6.23 0 0 1-2.8-2.29 7.3 7.3 0 0 1-1.15-3.68h-11.91a17.63 17.63 0 0 0 2.55 9.47 14.76 14.76 0 0 0 7 5.64 28.18 28.18 0 0 0 10.73 1.88 27.46 27.46 0 0 0 10.26-1.72 14.47 14.47 0 0 0 6.57-4.94 13.1 13.1 0 0 0 2.3-7.83 12.82 12.82 0 0 0-3.6-9.22q-3.55-3.61-11.1-5.25l-3.97-.79a15.56 15.56 0 0 1-5-1.9 3.18 3.18 0 0 1-1.5-2.87 3.15 3.15 0 0 1 .67-1.98 4.36 4.36 0 0 1 2-1.36 9.54 9.54 0 0 1 3.29-.49 9.67 9.67 0 0 1 3.58.57 4.54 4.54 0 0 1 2.16 1.72 5.77 5.77 0 0 1 .89 2.75h11.94a14.27 14.27 0 0 0-2.3-8.05 14.82 14.82 0 0 0-6.45-5.35 23.66 23.66 0 0 0-9.8-1.88m-64.78.65-.03 10.05h14.33V162h12.23v-37.33h14.3v-10.04H88.83m64.78-5.66a28.7 28.7 0 0 1 11.85 2.33 19.8 19.8 0 0 1 8.58 7.15 19.24 19.24 0 0 1 3.12 10.8v5h-5.58q.62.53 1.18 1.1a17.19 17.19 0 0 1 3.77 5.79 19.35 19.35 0 0 1 1.28 6.86v.06a18.05 18.05 0 0 1-3.24 10.75 19.45 19.45 0 0 1-8.77 6.67 32.51 32.51 0 0 1-12.13 2.08 33.24 33.24 0 0 1-12.62-2.24 19.73 19.73 0 0 1-9.3-7.55 22.6 22.6 0 0 1-3.36-12.1l-.09-5.1h5.71a15.47 15.47 0 0 1-3.16-4.93 17.74 17.74 0 0 1-1.2-5.97h-9.29V167H98.13v-37.33H83.78l.07-20.04h50.81v6.55a21.53 21.53 0 0 1 7.11-4.9 29.38 29.38 0 0 1 11.84-2.3Z"/></g></g></g></svg>